<svg width="16" height="14" viewBox="0 0 16 14" fill="none" xmlns="http://www.w3.org/2000/svg">
<path fill-rule="evenodd" clip-rule="evenodd" d="M2 0.999998H0V8H2C2.55 8 3 7.55 3 7V2C3 1.45 2.55 0.999998 2 0.999998ZM15.99 5.38C16.07 4.8 15.55 4.36 14.84 4.33C14.59 4.32 14.32 4.3 14.03 4.28C14.05 4.28 14.08 4.27 14.1 4.27C14.8 4.17 15.44 3.78 15.51 3.2C15.57 2.62 15.05 2.23 14.34 2.16C14.09 2.14 13.82 2.12 13.55 2.1C14.02 1.95 14.39 1.68 14.42 1.17C14.46 0.589998 13.63 0.139998 12.92 0.0799978C12.65 0.0599978 12.41 0.0399978 12.19 0.0299978C12.16 0.0299978 12.13 0.0299978 12.1 0.0299978C11.87 0.00999781 11.67 0.00999781 11.48 -2.1942e-06C8.35 -0.0500022 5.66 0.469998 4 1.51V7.51C6.14 8.8 8.76 11.1 8.21 13.02C8.03 13.61 8.52 14.07 9.19 14C10 13.91 10.56 13.09 10.59 12.22C10.63 11.22 10.44 10.21 10.09 9.31C10.05 9.06 10.1 8.81 10.46 8.78C10.95 8.75 11.57 8.72 12.05 8.7C12.31 8.7 12.56 8.69 12.8 8.68H12.81C13.22 8.66 13.61 8.63 13.94 8.59C14.64 8.5 15.29 8.12 15.37 7.54C15.45 6.96 14.93 6.57 14.22 6.49C14.17 6.48 14.11 6.48 14.06 6.47C14.23 6.46 14.39 6.44 14.55 6.42C15.27 6.34 15.92 5.96 15.99 5.38Z" fill="#8F95B2"/>
</svg>
